# xmcd
#
# Track frame offsets: 
#        150
#        11743
#        21706
#        30909
#        43530
#        53695
#        66385
#        77753
#        90703
#        103595
#        118941
#        131153
#        147774
#        161576
#        179640
#        207876
#
# Disc length: 3044 seconds
#
# Revision: 1
# Processed by: cddbd v1.5.2PL0 Copyright (c) Steve Scherf et al.
# Submitted via: ExactAudioCopyFreeDBPlugin 1.0
#
DISCID=e20be210
DTITLE=Feel The Blues - Feel The Blues
DYEAR=2003
DGENRE=Blues
TTITLE0=Screamin' Jay Hawkins - You're All Of My Life To Me
TTITLE1=John Lee Hooker - Dimples
TTITLE2=Little Walter - Crazy Mixed Up World
TTITLE3=Johnny "Guitar" Watson - Love Me Baby
TTITLE4=King Curtis, Tony Middleton - Count My Blessings
TTITLE5=Clarence Gatemouth Brown - She Walks Right In
TTITLE6=Champion Jack Dupree - Big Time Mama
TTITLE7=Big Bill Broonzy - You Do Me Any Old Way
TTITLE8=Bukka White - High Fever Blues
TTITLE9=Sony Boy Williamson - Bluebird Blues, Part 2
TTITLE10=Buddy Guy - You Sure Can't Do
TTITLE11=Memphis Slim - I Just Landed In Your Town
TTITLE12=Leroy Carr - Mean Mistreater Mama
TTITLE13=Guitar Slim - Outdoor Weather Blues
TTITLE14=Lightnin' Hopkins - Wonder Why
TTITLE15=Bo Diddley - I'm Sorry
EXTD=
EXTT0=
EXTT1=
EXTT2=
EXTT3=
EXTT4=
EXTT5=
EXTT6=
EXTT7=
EXTT8=
EXTT9=
EXTT10=
EXTT11=
EXTT12=
EXTT13=
EXTT14=
EXTT15=
PLAYORDER=
